<?xml version="1.0" standalone="no"?>
<!DOCTYPE svg PUBLIC "-//W3C//DTD SVG 20010904//EN"
 "http://www.w3.org/TR/2001/REC-SVG-20010904/DTD/svg10.dtd">
<svg version="1.0" xmlns="http://www.w3.org/2000/svg"
 width="1024.000000pt" height="1024.000000pt" viewBox="0 0 1024.000000 1024.000000"
 preserveAspectRatio="xMidYMid meet">

<g transform="translate(0.000000,1024.000000) scale(0.100000,-0.100000)"
fill="#000000" stroke="none">
<path d="M2 7803 c1 -1341 3 -2413 5 -2383 4 65 29 301 43 415 19 140 89 474
136 644 114 410 287 827 500 1201 847 1492 2409 2449 4169 2553 28 2 -1054 4
-2402 5 l-2453 2 2 -2437z"/>
<path d="M5395 10233 c126 -6 396 -36 537 -59 1525 -249 2860 -1163 3608
-2470 336 -587 544 -1187 649 -1869 17 -112 24 -181 44 -430 2 -22 4 1057 5
2398 l2 2437 -2452 -2 c-1349 -1 -2426 -3 -2393 -5z"/>
<path d="M4011 9023 c-38 -32 -72 -194 -78 -373 -4 -133 -2 -170 16 -258 53
-253 174 -445 381 -600 41 -31 79 -59 83 -62 4 -4 -8 -41 -28 -82 -24 -51 -46
-122 -66 -219 -16 -79 -42 -187 -57 -239 -37 -130 -38 -302 -4 -401 27 -78 75
-160 133 -230 l42 -50 -6 -107 c-3 -59 -15 -149 -27 -200 l-22 -92 -81 -73
c-150 -134 -288 -272 -343 -342 -194 -254 -247 -499 -139 -642 34 -43 86 -82
132 -98 34 -12 38 -17 35 -42 -5 -39 -16 -50 -60 -57 -63 -10 -163 -66 -223
-126 -67 -66 -121 -172 -144 -279 -17 -82 -20 -256 -5 -348 39 -236 185 -531
374 -756 37 -42 60 -77 53 -77 -7 0 -101 13 -208 30 -106 16 -219 30 -249 30
-120 0 -243 -53 -320 -137 -82 -90 -130 -205 -130 -313 0 -99 -78 -91 842 -91
883 0 846 -3 912 59 62 58 73 156 32 277 -14 39 -24 71 -23 72 1 0 36 -6 77
-14 98 -20 341 -20 430 0 36 8 66 14 67 13 0 0 -10 -35 -24 -76 -35 -104 -30
-193 13 -247 16 -21 52 -49 79 -62 l49 -25 805 2 c919 3 841 -6 841 92 0 163
-108 335 -254 404 -116 55 -174 57 -443 16 -108 -17 -202 -30 -210 -30 -8 0
13 31 46 69 85 99 130 162 196 276 42 73 86 129 159 205 355 368 580 847 652
1390 22 166 22 472 0 645 -23 179 -55 342 -79 392 -34 75 -116 108 -190 75
-75 -33 -100 -86 -112 -237 -32 -413 -134 -748 -304 -1002 -67 -100 -182 -238
-207 -247 -8 -3 -47 3 -85 15 -62 19 -70 24 -77 52 -9 31 -7 33 42 55 111 50
167 133 174 259 5 97 -18 185 -79 303 -79 153 -153 236 -485 545 -46 43 -56
59 -69 110 -21 86 -35 189 -35 268 0 65 2 71 39 115 57 67 107 154 133 231 18
54 23 88 23 181 0 100 -5 135 -37 265 -21 83 -47 193 -58 246 -12 53 -37 129
-56 169 -19 40 -31 76 -27 80 4 3 41 30 81 59 91 67 205 189 258 278 60 100
111 235 130 343 35 199 -5 563 -67 613 -31 25 -58 18 -188 -43 -225 -108 -407
-263 -507 -432 -58 -98 -118 -267 -136 -382 -6 -42 -14 -76 -17 -76 -3 0 -31
7 -61 15 -120 33 -300 29 -446 -11 -19 -5 -22 0 -28 48 -26 198 -112 393 -238
540 -108 125 -296 257 -463 325 -93 38 -105 39 -134 16z m854 -1548 c81 -47
124 -162 95 -250 -7 -21 -30 -58 -52 -81 -151 -163 -419 -18 -368 198 15 61
83 136 140 155 53 18 134 8 185 -22z m686 24 c91 -28 153 -115 153 -214 -1
-72 -19 -110 -75 -158 -88 -76 -204 -71 -289 12 -83 80 -93 189 -26 280 57 77
146 107 237 80z m-621 -945 c47 -14 99 -19 190 -19 91 0 143 5 190 19 105 30
110 30 110 12 0 -30 -38 -92 -78 -128 -115 -103 -321 -104 -441 -2 -42 36 -81
99 -81 130 0 18 5 18 110 -12z m301 -850 c170 -50 336 -210 448 -431 21 -42
21 -44 4 -95 -11 -34 -18 -83 -18 -134 0 -72 3 -86 30 -129 19 -30 47 -59 75
-75 l45 -26 12 -84 c6 -46 14 -92 16 -102 4 -14 -2 -22 -21 -29 -29 -11 -202
-59 -214 -59 -4 0 -14 27 -24 59 -10 36 -39 93 -74 144 -37 55 -62 103 -70
138 -24 106 0 99 -319 99 -225 0 -281 -3 -290 -14 -6 -7 -18 -40 -27 -72 -16
-62 -36 -101 -96 -186 -21 -29 -43 -75 -50 -103 -6 -27 -15 -54 -19 -58 -6 -8
-159 28 -220 51 l-26 10 16 103 16 103 45 26 c98 57 133 180 92 324 l-20 69
36 66 c175 323 418 474 653 405z m-864 -770 c-3 -3 -12 -4 -19 -1 -8 3 -5 6 6
6 11 1 17 -2 13 -5z m1556 -1 c-7 -2 -21 -2 -30 0 -10 3 -4 5 12 5 17 0 24 -2
18 -5z m207 -43 c0 -5 -2 -10 -4 -10 -3 0 -8 5 -11 10 -3 6 -1 10 4 10 6 0 11
-4 11 -10z m421 -147 c13 -16 12 -17 -3 -4 -10 7 -18 15 -18 17 0 8 8 3 21
-13z m-1431 -75 c0 -7 -7 -22 -16 -33 -13 -17 -16 -18 -24 -5 -14 21 -12 28 8
39 23 14 32 13 32 -1z m35 2 c3 -5 1 -10 -4 -10 -6 0 -11 5 -11 10 0 6 2 10 4
10 3 0 8 -4 11 -10z m355 -140 c0 -5 -5 -10 -11 -10 -5 0 -7 5 -4 10 3 6 8 10
11 10 2 0 4 -4 4 -10z m-979 -94 c257 -63 515 -87 757 -68 208 17 431 58 541
100 12 5 13 -11 8 -104 -10 -187 -57 -322 -159 -458 -61 -82 -140 -145 -243
-196 -111 -55 -189 -73 -315 -73 -126 0 -203 18 -315 72 -147 73 -252 181
-326 336 -52 108 -69 179 -76 314 -5 99 -4 114 9 109 8 -4 62 -18 119 -32z
m2190 -340 c6 3 5 -3 -3 -15 -19 -31 -25 -26 -19 17 4 26 6 30 9 14 2 -12 8
-20 13 -16z"/>
<path d="M4724 7361 c-91 -56 -56 -203 53 -218 75 -10 133 43 133 122 0 34
-12 46 -25 25 -9 -14 -58 -13 -73 2 -7 7 -12 24 -12 38 0 14 5 31 12 38 20 20
-53 15 -88 -7z"/>
<path d="M5382 7360 c-75 -46 -69 -166 12 -204 89 -42 176 11 176 109 0 40 -2
41 -35 19 -23 -15 -27 -15 -50 0 -26 17 -32 45 -15 77 10 17 7 19 -22 19 -18
0 -48 -9 -66 -20z"/>
<path d="M4984 5296 c-34 -15 -44 -33 -44 -75 0 -30 33 -67 64 -73 11 -1 21
-8 23 -13 2 -6 -34 -10 -94 -10 -120 0 -143 -6 -193 -51 -63 -57 -94 -191 -50
-214 35 -18 56 3 63 61 7 57 26 92 59 111 24 13 335 19 518 10 86 -5 97 -8
122 -32 15 -16 29 -43 33 -66 12 -73 15 -82 31 -88 31 -12 54 12 54 58 0 84
-35 148 -103 187 -36 20 -58 24 -146 26 -57 1 -106 5 -108 7 -2 2 12 9 31 16
20 6 41 20 46 30 25 47 -1 117 -45 121 -65 5 -95 -21 -95 -85 0 -57 -22 -78
-45 -42 -9 14 -14 30 -11 35 12 19 -22 81 -49 91 -15 6 -27 10 -28 10 -1 -1
-16 -7 -33 -14z"/>
<path d="M2 2438 l-2 -2438 2443 2 c1343 1 2420 3 2392 5 -570 35 -1094 153
-1625 365 -1210 485 -2176 1399 -2726 2578 -134 289 -226 541 -309 848 -91
340 -134 600 -168 1037 -2 22 -4 -1057 -5 -2397z"/>
<path d="M10230 4782 c0 -37 -7 -122 -15 -187 -8 -66 -17 -136 -19 -155 -63
-510 -252 -1124 -497 -1613 -202 -402 -502 -841 -784 -1147 -137 -149 -180
-192 -307 -310 -651 -605 -1443 -1026 -2332 -1239 -233 -56 -606 -111 -841
-124 -33 -2 1035 -4 2373 -5 l2432 -2 0 2425 c0 1334 -2 2425 -5 2425 -3 0 -5
-31 -5 -68z"/>
<path d="M6510 2237 c-215 -73 -350 -268 -350 -505 0 -153 42 -268 133 -368
104 -114 217 -164 371 -164 149 0 259 43 356 140 158 158 197 428 94 647 -55
115 -180 218 -313 257 -81 24 -211 21 -291 -7z m285 -158 c69 -32 131 -97 168
-177 30 -62 32 -74 31 -172 0 -128 -22 -194 -90 -269 -67 -74 -138 -106 -239
-106 -67 0 -89 5 -137 28 -211 104 -263 433 -97 621 88 101 242 133 364 75z"/>
<path d="M3095 2225 l-25 -24 0 -474 0 -474 23 -21 c25 -24 75 -29 107 -12 28
15 39 70 40 200 l0 115 74 73 73 74 163 -219 c89 -120 171 -226 182 -236 52
-45 138 -5 138 64 0 29 -22 63 -137 215 -76 99 -157 205 -180 234 l-41 55 174
176 c140 141 174 181 174 203 0 38 -41 76 -82 76 -29 0 -58 -26 -285 -252
l-253 -252 0 211 c0 214 -6 255 -38 279 -28 22 -80 17 -107 -11z"/>
<path d="M4060 2230 c-11 -11 -22 -30 -25 -42 -3 -13 -4 -229 -3 -481 l3 -459
24 -19 c36 -29 94 -25 120 7 21 26 21 36 21 496 l0 469 -25 24 c-31 31 -86 34
-115 5z"/>
<path d="M4446 2225 l-26 -24 0 -476 c0 -462 1 -476 20 -495 27 -27 93 -27
120 0 18 18 20 33 20 179 l0 159 173 4 c165 3 174 4 229 31 107 53 168 151
176 283 7 136 -37 239 -134 307 -67 47 -127 57 -350 57 -200 0 -201 0 -228
-25z m477 -158 c52 -39 71 -81 71 -152 0 -73 -23 -126 -72 -163 -34 -26 -40
-27 -189 -30 l-153 -3 0 191 0 191 153 -3 c151 -3 154 -4 190 -31z"/>
<path d="M5343 2226 l-28 -24 -3 -444 c-2 -243 0 -458 3 -476 9 -48 37 -72 84
-72 31 0 44 6 60 26 19 24 21 40 21 180 l0 152 173 4 c164 3 174 4 222 30 141
75 211 239 171 398 -30 119 -108 202 -220 235 -37 11 -103 15 -252 15 -200 0
-203 0 -231 -24z m454 -143 c54 -25 87 -83 91 -162 5 -87 -24 -144 -88 -178
-39 -21 -56 -23 -182 -23 l-138 0 0 190 0 190 141 0 c111 0 149 -4 176 -17z"/>
</g>
</svg>
